<mxfile host="www.draw.io" modified="2024-05-02T14:24:29.808Z" agent="Mozilla/5.0 (Windows NT 10.0; Win64; x64) AppleWebKit/537.36 (KHTML, like Gecko) Chrome/124.0.0.0 Safari/537.36" etag="3hhOeRol1eFM-qvoEgaq" version="24.3.1" type="device">
  <diagram id="-Q11ldrP1Bci3HnGlJ7T" name="第 1 页">
    <mxGraphModel dx="1050" dy="625" grid="1" gridSize="10" guides="1" tooltips="1" connect="1" arrows="1" fold="1" page="1" pageScale="1" pageWidth="827" pageHeight="1169" math="0" shadow="0">
      <root>
        <mxCell id="0" />
        <mxCell id="1" parent="0" />
        <mxCell id="yiYlynJE_OyoIodDRVfb-42" value="" style="group" vertex="1" connectable="0" parent="1">
          <mxGeometry x="70" y="800" width="649.5" height="125" as="geometry" />
        </mxCell>
        <mxCell id="yiYlynJE_OyoIodDRVfb-43" value="" style="group;fillColor=default;" vertex="1" connectable="0" parent="yiYlynJE_OyoIodDRVfb-42">
          <mxGeometry y="5" width="130" height="120" as="geometry" />
        </mxCell>
        <mxCell id="yiYlynJE_OyoIodDRVfb-44" value="" style="rounded=1;whiteSpace=wrap;html=1;fillColor=#FF9999;" vertex="1" parent="yiYlynJE_OyoIodDRVfb-43">
          <mxGeometry width="130" height="120" as="geometry" />
        </mxCell>
        <mxCell id="yiYlynJE_OyoIodDRVfb-45" value="&lt;font style=&quot;font-size: 18px;&quot;&gt;Private&lt;/font&gt;&lt;div style=&quot;font-size: 18px;&quot;&gt;&lt;font style=&quot;font-size: 18px;&quot;&gt;Memory&lt;/font&gt;&lt;/div&gt;" style="rounded=0;whiteSpace=wrap;html=1;fillColor=#CCE5FF;" vertex="1" parent="yiYlynJE_OyoIodDRVfb-43">
          <mxGeometry x="15" y="50" width="100" height="60" as="geometry" />
        </mxCell>
        <mxCell id="yiYlynJE_OyoIodDRVfb-46" value="&lt;font style=&quot;font-size: 18px;&quot;&gt;Process 0&lt;/font&gt;" style="text;html=1;align=center;verticalAlign=middle;whiteSpace=wrap;rounded=0;" vertex="1" parent="yiYlynJE_OyoIodDRVfb-43">
          <mxGeometry x="17.5" y="10" width="95" height="30" as="geometry" />
        </mxCell>
        <mxCell id="yiYlynJE_OyoIodDRVfb-47" value="" style="group;fillColor=default;" vertex="1" connectable="0" parent="yiYlynJE_OyoIodDRVfb-42">
          <mxGeometry x="170" width="130" height="120" as="geometry" />
        </mxCell>
        <mxCell id="yiYlynJE_OyoIodDRVfb-48" value="" style="rounded=1;whiteSpace=wrap;html=1;fillColor=#FF9999;" vertex="1" parent="yiYlynJE_OyoIodDRVfb-47">
          <mxGeometry width="130" height="120" as="geometry" />
        </mxCell>
        <mxCell id="yiYlynJE_OyoIodDRVfb-49" value="&lt;font style=&quot;font-size: 18px;&quot;&gt;Private&lt;/font&gt;&lt;div style=&quot;font-size: 18px;&quot;&gt;&lt;font style=&quot;font-size: 18px;&quot;&gt;Memory&lt;/font&gt;&lt;/div&gt;" style="rounded=0;whiteSpace=wrap;html=1;fillColor=#CCE5FF;" vertex="1" parent="yiYlynJE_OyoIodDRVfb-47">
          <mxGeometry x="15" y="50" width="100" height="60" as="geometry" />
        </mxCell>
        <mxCell id="yiYlynJE_OyoIodDRVfb-50" value="&lt;font style=&quot;font-size: 18px;&quot;&gt;Process 1&lt;/font&gt;" style="text;html=1;align=center;verticalAlign=middle;whiteSpace=wrap;rounded=0;" vertex="1" parent="yiYlynJE_OyoIodDRVfb-47">
          <mxGeometry x="17.5" y="10" width="95" height="30" as="geometry" />
        </mxCell>
        <mxCell id="yiYlynJE_OyoIodDRVfb-51" value="" style="group;fillColor=default;" vertex="1" connectable="0" parent="yiYlynJE_OyoIodDRVfb-42">
          <mxGeometry x="341" width="130" height="120" as="geometry" />
        </mxCell>
        <mxCell id="yiYlynJE_OyoIodDRVfb-52" value="" style="rounded=1;whiteSpace=wrap;html=1;fillColor=#FF9999;" vertex="1" parent="yiYlynJE_OyoIodDRVfb-51">
          <mxGeometry width="130" height="120" as="geometry" />
        </mxCell>
        <mxCell id="yiYlynJE_OyoIodDRVfb-53" value="&lt;font style=&quot;font-size: 18px;&quot;&gt;Private&lt;/font&gt;&lt;div style=&quot;font-size: 18px;&quot;&gt;&lt;font style=&quot;font-size: 18px;&quot;&gt;Memory&lt;/font&gt;&lt;/div&gt;" style="rounded=0;whiteSpace=wrap;html=1;fillColor=#CCE5FF;" vertex="1" parent="yiYlynJE_OyoIodDRVfb-51">
          <mxGeometry x="15" y="50" width="100" height="60" as="geometry" />
        </mxCell>
        <mxCell id="yiYlynJE_OyoIodDRVfb-54" value="&lt;font style=&quot;font-size: 18px;&quot;&gt;Process 2&lt;/font&gt;" style="text;html=1;align=center;verticalAlign=middle;whiteSpace=wrap;rounded=0;" vertex="1" parent="yiYlynJE_OyoIodDRVfb-51">
          <mxGeometry x="17.5" y="10" width="95" height="30" as="geometry" />
        </mxCell>
        <mxCell id="yiYlynJE_OyoIodDRVfb-55" value="" style="group;fillColor=default;" vertex="1" connectable="0" parent="yiYlynJE_OyoIodDRVfb-42">
          <mxGeometry x="509" width="130" height="120" as="geometry" />
        </mxCell>
        <mxCell id="yiYlynJE_OyoIodDRVfb-56" value="" style="rounded=1;whiteSpace=wrap;html=1;fillColor=#FF9999;" vertex="1" parent="yiYlynJE_OyoIodDRVfb-55">
          <mxGeometry width="130" height="120" as="geometry" />
        </mxCell>
        <mxCell id="yiYlynJE_OyoIodDRVfb-57" value="&lt;font style=&quot;font-size: 18px;&quot;&gt;Private&lt;/font&gt;&lt;div style=&quot;font-size: 18px;&quot;&gt;&lt;font style=&quot;font-size: 18px;&quot;&gt;Memory&lt;/font&gt;&lt;/div&gt;" style="rounded=0;whiteSpace=wrap;html=1;fillColor=#CCE5FF;" vertex="1" parent="yiYlynJE_OyoIodDRVfb-55">
          <mxGeometry x="15" y="50" width="100" height="60" as="geometry" />
        </mxCell>
        <mxCell id="yiYlynJE_OyoIodDRVfb-58" value="&lt;font style=&quot;font-size: 18px;&quot;&gt;Process 3&lt;/font&gt;" style="text;html=1;align=center;verticalAlign=middle;whiteSpace=wrap;rounded=0;" vertex="1" parent="yiYlynJE_OyoIodDRVfb-55">
          <mxGeometry x="17.5" y="10" width="95" height="30" as="geometry" />
        </mxCell>
        <mxCell id="yiYlynJE_OyoIodDRVfb-41" value="" style="group;fillColor=none;opacity=30;" vertex="1" connectable="0" parent="yiYlynJE_OyoIodDRVfb-42">
          <mxGeometry x="-10.5" y="37.5" width="660" height="50" as="geometry" />
        </mxCell>
        <mxCell id="yiYlynJE_OyoIodDRVfb-36" value="" style="rounded=1;whiteSpace=wrap;html=1;fillColor=#CCFFCC;strokeColor=#808080;opacity=80;" vertex="1" parent="yiYlynJE_OyoIodDRVfb-41">
          <mxGeometry width="660" height="50" as="geometry" />
        </mxCell>
        <mxCell id="yiYlynJE_OyoIodDRVfb-37" value="&lt;font style=&quot;font-size: 18px;&quot;&gt;window&lt;/font&gt;" style="rounded=0;whiteSpace=wrap;html=1;fillColor=#FFFFCC;opacity=80;" vertex="1" parent="yiYlynJE_OyoIodDRVfb-41">
          <mxGeometry x="18" y="10" width="112.5" height="30" as="geometry" />
        </mxCell>
        <mxCell id="yiYlynJE_OyoIodDRVfb-38" value="&lt;font style=&quot;font-size: 18px;&quot;&gt;window&lt;/font&gt;" style="rounded=0;whiteSpace=wrap;html=1;fillColor=#FFFFCC;opacity=80;" vertex="1" parent="yiYlynJE_OyoIodDRVfb-41">
          <mxGeometry x="530.5" y="10" width="112.5" height="30" as="geometry" />
        </mxCell>
        <mxCell id="yiYlynJE_OyoIodDRVfb-39" value="&lt;font style=&quot;font-size: 18px;&quot;&gt;window&lt;/font&gt;" style="rounded=0;whiteSpace=wrap;html=1;fillColor=#FFFFCC;opacity=80;" vertex="1" parent="yiYlynJE_OyoIodDRVfb-41">
          <mxGeometry x="190.5" y="10" width="112.5" height="30" as="geometry" />
        </mxCell>
        <mxCell id="yiYlynJE_OyoIodDRVfb-40" value="&lt;font style=&quot;font-size: 18px;&quot;&gt;window&lt;/font&gt;" style="rounded=0;whiteSpace=wrap;html=1;fillColor=#FFFFCC;opacity=80;" vertex="1" parent="yiYlynJE_OyoIodDRVfb-41">
          <mxGeometry x="360.5" y="10" width="112.5" height="30" as="geometry" />
        </mxCell>
        <mxCell id="yiYlynJE_OyoIodDRVfb-18" value="" style="group" vertex="1" connectable="0" parent="1">
          <mxGeometry x="70" y="613" width="639" height="125" as="geometry" />
        </mxCell>
        <mxCell id="yiYlynJE_OyoIodDRVfb-5" value="" style="group;fillColor=default;" vertex="1" connectable="0" parent="yiYlynJE_OyoIodDRVfb-18">
          <mxGeometry y="5" width="130" height="120" as="geometry" />
        </mxCell>
        <mxCell id="yiYlynJE_OyoIodDRVfb-1" value="" style="rounded=1;whiteSpace=wrap;html=1;fillColor=#FF9999;" vertex="1" parent="yiYlynJE_OyoIodDRVfb-5">
          <mxGeometry width="130" height="120" as="geometry" />
        </mxCell>
        <mxCell id="yiYlynJE_OyoIodDRVfb-3" value="&lt;font style=&quot;font-size: 18px;&quot;&gt;Private&lt;/font&gt;&lt;div style=&quot;font-size: 18px;&quot;&gt;&lt;font style=&quot;font-size: 18px;&quot;&gt;Memory&lt;/font&gt;&lt;/div&gt;" style="rounded=0;whiteSpace=wrap;html=1;fillColor=#CCE5FF;" vertex="1" parent="yiYlynJE_OyoIodDRVfb-5">
          <mxGeometry x="15" y="50" width="100" height="60" as="geometry" />
        </mxCell>
        <mxCell id="yiYlynJE_OyoIodDRVfb-4" value="&lt;font style=&quot;font-size: 18px;&quot;&gt;Process 0&lt;/font&gt;" style="text;html=1;align=center;verticalAlign=middle;whiteSpace=wrap;rounded=0;" vertex="1" parent="yiYlynJE_OyoIodDRVfb-5">
          <mxGeometry x="17.5" y="10" width="95" height="30" as="geometry" />
        </mxCell>
        <mxCell id="yiYlynJE_OyoIodDRVfb-6" value="" style="group;fillColor=default;" vertex="1" connectable="0" parent="yiYlynJE_OyoIodDRVfb-18">
          <mxGeometry x="170" width="130" height="120" as="geometry" />
        </mxCell>
        <mxCell id="yiYlynJE_OyoIodDRVfb-7" value="" style="rounded=1;whiteSpace=wrap;html=1;fillColor=#FF9999;" vertex="1" parent="yiYlynJE_OyoIodDRVfb-6">
          <mxGeometry width="130" height="120" as="geometry" />
        </mxCell>
        <mxCell id="yiYlynJE_OyoIodDRVfb-8" value="&lt;font style=&quot;font-size: 18px;&quot;&gt;Private&lt;/font&gt;&lt;div style=&quot;font-size: 18px;&quot;&gt;&lt;font style=&quot;font-size: 18px;&quot;&gt;Memory&lt;/font&gt;&lt;/div&gt;" style="rounded=0;whiteSpace=wrap;html=1;fillColor=#CCE5FF;" vertex="1" parent="yiYlynJE_OyoIodDRVfb-6">
          <mxGeometry x="15" y="50" width="100" height="60" as="geometry" />
        </mxCell>
        <mxCell id="yiYlynJE_OyoIodDRVfb-9" value="&lt;font style=&quot;font-size: 18px;&quot;&gt;Process 1&lt;/font&gt;" style="text;html=1;align=center;verticalAlign=middle;whiteSpace=wrap;rounded=0;" vertex="1" parent="yiYlynJE_OyoIodDRVfb-6">
          <mxGeometry x="17.5" y="10" width="95" height="30" as="geometry" />
        </mxCell>
        <mxCell id="yiYlynJE_OyoIodDRVfb-10" value="" style="group;fillColor=default;" vertex="1" connectable="0" parent="yiYlynJE_OyoIodDRVfb-18">
          <mxGeometry x="341" width="130" height="120" as="geometry" />
        </mxCell>
        <mxCell id="yiYlynJE_OyoIodDRVfb-11" value="" style="rounded=1;whiteSpace=wrap;html=1;fillColor=#FF9999;" vertex="1" parent="yiYlynJE_OyoIodDRVfb-10">
          <mxGeometry width="130" height="120" as="geometry" />
        </mxCell>
        <mxCell id="yiYlynJE_OyoIodDRVfb-12" value="&lt;font style=&quot;font-size: 18px;&quot;&gt;Private&lt;/font&gt;&lt;div style=&quot;font-size: 18px;&quot;&gt;&lt;font style=&quot;font-size: 18px;&quot;&gt;Memory&lt;/font&gt;&lt;/div&gt;" style="rounded=0;whiteSpace=wrap;html=1;fillColor=#CCE5FF;" vertex="1" parent="yiYlynJE_OyoIodDRVfb-10">
          <mxGeometry x="15" y="50" width="100" height="60" as="geometry" />
        </mxCell>
        <mxCell id="yiYlynJE_OyoIodDRVfb-13" value="&lt;font style=&quot;font-size: 18px;&quot;&gt;Process 2&lt;/font&gt;" style="text;html=1;align=center;verticalAlign=middle;whiteSpace=wrap;rounded=0;" vertex="1" parent="yiYlynJE_OyoIodDRVfb-10">
          <mxGeometry x="17.5" y="10" width="95" height="30" as="geometry" />
        </mxCell>
        <mxCell id="yiYlynJE_OyoIodDRVfb-14" value="" style="group;fillColor=default;" vertex="1" connectable="0" parent="yiYlynJE_OyoIodDRVfb-18">
          <mxGeometry x="509" width="130" height="120" as="geometry" />
        </mxCell>
        <mxCell id="yiYlynJE_OyoIodDRVfb-15" value="" style="rounded=1;whiteSpace=wrap;html=1;fillColor=#FF9999;" vertex="1" parent="yiYlynJE_OyoIodDRVfb-14">
          <mxGeometry width="130" height="120" as="geometry" />
        </mxCell>
        <mxCell id="yiYlynJE_OyoIodDRVfb-16" value="&lt;font style=&quot;font-size: 18px;&quot;&gt;Private&lt;/font&gt;&lt;div style=&quot;font-size: 18px;&quot;&gt;&lt;font style=&quot;font-size: 18px;&quot;&gt;Memory&lt;/font&gt;&lt;/div&gt;" style="rounded=0;whiteSpace=wrap;html=1;fillColor=#CCE5FF;" vertex="1" parent="yiYlynJE_OyoIodDRVfb-14">
          <mxGeometry x="15" y="50" width="100" height="60" as="geometry" />
        </mxCell>
        <mxCell id="yiYlynJE_OyoIodDRVfb-17" value="&lt;font style=&quot;font-size: 18px;&quot;&gt;Process 3&lt;/font&gt;" style="text;html=1;align=center;verticalAlign=middle;whiteSpace=wrap;rounded=0;" vertex="1" parent="yiYlynJE_OyoIodDRVfb-14">
          <mxGeometry x="17.5" y="10" width="95" height="30" as="geometry" />
        </mxCell>
        <mxCell id="yiYlynJE_OyoIodDRVfb-59" value="&lt;font face=&quot;Times New Roman&quot; style=&quot;font-size: 30px;&quot;&gt;(a)&lt;/font&gt;" style="text;html=1;strokeColor=none;fillColor=none;align=center;verticalAlign=middle;whiteSpace=wrap;rounded=0;fontSize=30;" vertex="1" parent="1">
          <mxGeometry x="364.75" y="738" width="60" height="30" as="geometry" />
        </mxCell>
        <mxCell id="yiYlynJE_OyoIodDRVfb-60" value="&lt;font face=&quot;Times New Roman&quot; style=&quot;font-size: 30px;&quot;&gt;(b)&lt;/font&gt;" style="text;html=1;strokeColor=none;fillColor=none;align=center;verticalAlign=middle;whiteSpace=wrap;rounded=0;fontSize=30;" vertex="1" parent="1">
          <mxGeometry x="364.75" y="930" width="60" height="30" as="geometry" />
        </mxCell>
      </root>
    </mxGraphModel>
  </diagram>
</mxfile>
